<?xml version="1.0" encoding="UTF-8"?>
<svg id="icon" xmlns="http://www.w3.org/2000/svg" version="1.1" viewBox="0 0 24 24">
  <!-- Generator: Adobe Illustrator 30.3.0, SVG Export Plug-In . SVG Version: 2.1.3 Build 182)  -->
  <defs>
    <style>
      .st0 {
        fill: #040000;
      }
    </style>
  </defs>
  <path class="st0" d="M12.44,14.63c.03-.12-.07-.33-.07-.33-.3.13-.68.16-1.34.06-.66-.1-1.15-.3-1.23-.44-.08.03-.16.13-.17.22-.02.09-.21.43,1.29.67,1.27.2,1.5-.05,1.54-.17Z"/>
  <path class="st0" d="M10.6,9.99l.81-.35v-.13l-1.85-3.72h-.13l-.59.26v.13l1.58,3.81h.18ZM9.72,6.74l-.24.1h-.05l-.25-.66v-.04l.17-.08h.04l.33.63v.04Z"/>
  <path class="st0" d="M17.19,14.13c-.02-.09-.1-.18-.17-.22-.09.14-.57.35-1.23.44-.66.1-1.04.07-1.34-.06,0,0-.1.21-.07.33.03.12.27.38,1.53.17,1.5-.24,1.3-.58,1.29-.67Z"/>
  <path class="st0" d="M15.78,14.15c1.42-.22,1.37-.76,1.27-.99-.1-.24-.51-.27-.51-.27l.15-.13-.15-.58.51-.32-.13-1.96-.19-.13-.2.48-.33.07-1.07-.5v-.32l.17-.29-.93.08-.13.33h-.82s0,0,0,0h-.82l-.13-.33-.93-.08.16.29v.32l-1.07.5-.33-.07-.2-.48-.19.13-.13,1.96.51.32-.15.58.15.13s-.41.04-.51.27c-.1.23-.15.77,1.27.99,1.36.21,1.4-.11,1.47-.23.07-.12.01-.29-.06-.43.13-.04.39-.18.39-.18h1.15s.26.14.39.18c-.07.14-.12.31-.06.43.06.12.11.44,1.47.23Z"/>
  <path class="st0" d="M16.39,9.99l1.58-3.81v-.13l-.59-.26h-.13l-1.85,3.72v.13l.81.35h.18ZM17.09,6.71l.33-.63h.04l.17.08v.04l-.25.66h-.05l-.24-.1v-.04Z"/>
  <polygon class="st0" points="17.62 20.73 17.37 20.66 14.81 20.66 14.48 20.86 14.48 21.69 14.35 21.75 14.35 22.21 14.65 22.33 19.06 22.33 19.2 22.27 18.96 21.57 17.62 20.73"/>
  <polygon class="st0" points="17.35 20.24 17.62 19.94 17.04 17.71 16.86 17.56 15.98 17.64 15.85 17.77 15.59 18.56 14.63 18.96 14.57 19.09 14.57 20.05 14.79 20.24 17.35 20.24"/>
  <path class="st0" d="M16.36,15.64c-.13.04-1.64.52-1.64.52-.13.04-.14.22-.14.37v1.85c0,.09.12.09.12.09l.35-.14s.19-.09.21-.26c.02-.16.04-.39.06-.5.03-.14.09-.21.22-.25.28-.09.92-.3,1.14-.38.18-.06.15-.18.13-.27-.03-.09-.22-.85-.26-.94-.04-.09-.05-.14-.18-.1Z"/>
  <polygon class="st0" points="12.33 20.86 12 20.66 9.43 20.66 9.19 20.73 7.85 21.57 7.61 22.27 7.75 22.33 12.16 22.33 12.45 22.21 12.45 21.75 12.33 21.69 12.33 20.86"/>
  <polygon class="st0" points="11.22 18.56 10.96 17.77 10.82 17.64 9.95 17.56 9.77 17.71 9.19 19.94 9.45 20.24 12.02 20.24 12.24 20.05 12.24 19.09 12.17 18.96 11.22 18.56"/>
  <path class="st0" d="M12.24,16.53c0-.14-.01-.32-.14-.37,0,0-1.51-.48-1.64-.52-.13-.04-.14.01-.18.1-.04.09-.23.85-.26.94-.03.09-.05.21.13.27.22.08.85.29,1.14.38.13.04.19.11.22.25.02.11.04.34.06.5.02.17.21.26.21.26l.35.14s.12,0,.12-.09v-1.85Z"/>
  <polygon class="st0" points="14.96 8.7 15.08 8.52 15.08 6.51 15.02 6.38 15.02 6.08 14.83 5.95 14.72 3.28 14.7 3.23 14.7 3.09 14.77 3.09 14.77 2.96 14.51 2.96 14.51 3.1 14.57 3.1 14.57 3.23 14.55 3.29 14.42 6.01 14.31 6.14 14.31 8.64 14.37 8.7 14.96 8.7"/>
  <polygon class="st0" points="12.44 8.7 12.5 8.64 12.5 6.14 12.39 6.01 12.26 3.28 12.24 3.23 12.24 3.1 12.3 3.1 12.3 2.96 12.04 2.96 12.04 3.09 12.11 3.09 12.11 3.23 12.09 3.28 11.98 5.95 11.79 6.08 11.79 6.38 11.73 6.51 11.73 8.52 11.85 8.7 12.44 8.7"/>
  <path class="st0" d="M17.57,13.27l.12,4.92.11.09.34-.16.16-1.92.34-.33-.03-.19c.25,0,.48-.16.55-.41.07-.26-.06-.52-.3-.64.08-.07.15-.16.18-.27.08-.3-.1-.61-.4-.69-.12-.03-.24-.01-.35.03l-.04-.25-.53-.22-.14.04Z"/>
  <path class="st0" d="M8.17,13.68c-.3.08-.48.39-.4.69.03.11.1.2.18.27-.24.12-.37.38-.3.64.07.25.3.41.55.41l-.03.19.34.33.16,1.92.34.16.11-.09.12-4.92-.14-.04-.53.22-.04.25c-.11-.04-.23-.06-.35-.03Z"/>
  <polygon class="st0" points="18.73 18.66 21.26 18.67 21.19 18.34 18.77 18.33 18.73 18.66"/>
  <polygon class="st0" points="19.13 15.99 18.83 18.13 21.12 18.15 20.85 17.44 19.28 17.44 19.13 15.99"/>
  <path class="st0" d="M18.72,10.74l.79,6.37,1.21-.02-.03-.44-.17-.22-.26-5.09.28-.64-.51-1.67s-.02,0-.03,0c.32.02.61-.18.7-.49.1-.35-.11-.71-.45-.82.07-.08.14-.17.16-.28.1-.36-.12-.74-.48-.84-.22-.06-.44,0-.61.15,0,0,0,0,0,0l-.12-.41-.86-.23.06,4.33.29.33ZM19.13,9.88l1.09.82-.23.48-1.16-.83.31-.47Z"/>
  <polygon class="st0" points="5.55 18.67 8.08 18.66 8.04 18.33 5.62 18.34 5.55 18.67"/>
  <polygon class="st0" points="7.53 17.44 5.95 17.44 5.69 18.15 7.98 18.13 7.68 15.99 7.53 17.44"/>
  <path class="st0" d="M6.79,9.02s-.01,0-.02,0l-.51,1.68.29.64-.26,5.09-.18.22-.03.44,1.21.02.79-6.37.29-.33.06-4.33-.86.23-.12.41s0,0,0,0c-.16-.14-.38-.2-.6-.14-.36.1-.58.47-.48.84.03.11.09.2.17.28-.34.11-.55.47-.45.82.08.32.38.51.69.49ZM7.68,9.88l.31.47-1.16.83-.24-.48,1.09-.82Z"/>
  <path class="st0" d="M4.76,19.19v-2.17s1.04.02,1.04.02l.03-.37-.1-.11-1.08-.44v-1.73l1.39-.05.03-.51h-.82l-.02-1.02-.33-.31.11-.09-.18-4.95-.5-.19v2.7s-1.74,1.2-1.74,1.2l-.33,3.04,1.03,1.5-.05.89-.98.57-.07,2.62.99.52-.43.35v1.5l.28.18h2.45l.24-.37-.08-2.35-.87-.42ZM4.17,11.96l-.45.4-.3.26s-.05.07-.05.11l-.17,1.51-.46-.37.26-2.34.82-.42.35-.21h0s0,0,0,0v1.06ZM4.44,13.06l.31-.22.17.16v.68s-.5,0-.5,0l.02-.62Z"/>
  <polygon class="st0" points="4 10.02 4.23 9.86 4.23 7.12 4.79 7.34 4.63 4.28 4.91 3.95 4.62 1.22 4.06 1.22 3.76 3.95 4.06 4.28 4 10.02"/>
  <path class="st0" d="M3.86,10.06s-.01-.03-.01-.04l.05-4.79-.33.17-.28,5.11.59-.41s-.01-.02-.01-.03Z"/>
  <polygon class="st0" points="4.93 7.14 5.26 6.75 5.1 5.39 4.83 5.24 4.93 7.14"/>
</svg>