<svg width="300" height="300" fill="none" xmlns="http://www.w3.org/2000/svg"><path d="m91.563 126.318-12.087 9.065 1.39 2.818 12.625-8.973-1.928-2.91ZM255.364 126.318l-1.927 2.91 12.624 8.973 1.39-2.818-12.087-9.065ZM159.783 190.533a9.267 9.267 0 0 0-1.02-4.764c-4.319 1.854-9.714 2.243-19.057.871-9.343-1.372-16.276-4.319-17.5-6.303a4.791 4.791 0 0 0-2.465 3.096c-.26 1.242-2.966 6.136 18.26 9.51 18.018 2.929 21.337-.686 21.782-2.41ZM133.607 124.594l11.475-5.006v-1.853L118.758 64.92h-1.854l-8.342 3.707v1.854l22.394 54.113h2.651Zm-12.55-46.086-3.374 1.446h-.76l-3.578-9.38v-.556l2.428-1.075h.557l4.727 9.01v.555ZM227.224 183.489a4.858 4.858 0 0 0-2.484-3.096c-1.224 1.984-8.138 4.95-17.5 6.303-9.362 1.353-14.738.982-19.057-.871a9.26 9.26 0 0 0-1.057 4.708c.445 1.724 3.708 5.339 21.801 2.466 21.244-3.374 18.538-8.268 18.297-9.51Z" fill="#72AEE6"/><path d="M207.203 183.73c20.132-3.096 19.446-10.734 18.037-14.071-1.409-3.336-7.304-3.892-7.304-3.892l2.132-1.854-2.132-8.231 7.304-4.616-1.854-27.807-2.706-1.854-2.855 6.859-4.671.983-15.22-7.045v-4.56l2.354-4.078-13.254 1.186-1.854 4.746h-23.432l-1.854-4.746-13.236-1.186 2.336 4.078v4.56l-15.202 7.045-4.671-.983-2.855-6.859-2.706 1.854-1.854 27.807 7.285 4.616-2.113 8.231 2.113 1.854s-5.858.556-7.285 3.892c-1.428 3.337-2.077 10.975 18.037 14.071 19.261 2.966 19.947-1.594 20.874-3.337.927-1.743.185-4.134-.797-6.136a40.745 40.745 0 0 0 5.561-2.558h16.332a40.702 40.702 0 0 0 5.562 2.558c-.983 2.002-1.725 4.412-.798 6.136.927 1.724 1.446 6.303 20.726 3.337Z" fill="#72AEE6"/><path d="m215.916 124.594 22.412-54.113v-1.853l-8.342-3.708h-1.854l-26.324 52.815v1.853l11.475 5.006h2.633Zm9.936-46.642 4.746-9.01h.463l2.466 1.076v.556l-3.597 9.38h-.723l-3.374-1.446.019-.556ZM233.378 277.309l-3.522-1.038h-36.408l-4.728 2.781v11.772l-1.761.927v6.581L191.13 300h62.622l2.057-.797-3.411-10.066-19.02-11.828ZM229.578 270.339l3.8-4.338-8.249-31.588-2.595-2.243-12.402 1.204-1.965 1.854-3.708 11.123-13.514 5.747-.927 1.854v13.625l3.152 2.762h36.408ZM215.396 204.937c-1.853.556-23.357 7.415-23.357 7.415-1.854.575-2.04 3.152-2.04 5.191v26.305c0 1.261 1.762 1.354 1.762 1.354l4.968-1.947a5.427 5.427 0 0 0 3.021-3.707c.26-2.262.612-5.562.89-7.045a3.95 3.95 0 0 1 3.096-3.522c4.041-1.242 12.977-4.282 16.147-5.395a2.683 2.683 0 0 0 2.148-2.665 2.677 2.677 0 0 0-.295-1.19c-.37-1.298-3.151-12.05-3.707-13.348-.556-1.297-.779-2.076-2.633-1.446ZM158.207 279.052l-4.709-2.781h-36.427l-3.522 1.038-19.02 11.828-3.411 10.066 2.058.797h62.621l4.171-1.668v-6.581l-1.761-.927v-11.772ZM142.45 246.351l-3.708-11.123-1.928-1.854-12.42-1.204-2.596 2.243-8.249 31.588 3.8 4.338h36.409l3.151-2.762v-13.625l-.927-1.854-13.532-5.747ZM156.909 217.543c0-2.039-.204-4.616-2.039-5.191 0 0-21.504-6.859-23.358-7.415-1.854-.556-2.039.186-2.595 1.483-.556 1.298-3.337 12.05-3.708 13.348a2.69 2.69 0 0 0 1.854 3.856c3.096 1.112 12.105 4.152 16.128 5.394a3.954 3.954 0 0 1 3.115 3.522c.296 1.52.63 4.783.889 7.045a5.443 5.443 0 0 0 3.022 3.707l4.968 1.947s1.854-.093 1.854-1.353l-.13-26.343ZM189.684 29.401l-1.26 36.835 2.002 1.038 2.781-1.742-1.02-36.28-.371-.685v-1.872h1.075V24.84h-3.744v1.91h.89v1.872l-.353.778ZM195.561 106.371l1.742-2.595V75.227l-.945-1.835V69.11l-2.577-1.836-2.966 1.836-2.91-.946L186.348 70V105.5l.852.871h8.361ZM154.74 29.253l-1.019 36.279 2.762 1.742 2.021-1.038-1.261-36.835-.352-.778V26.75h.89v-1.91h-3.745v1.855h1.075v1.872l-.371.686ZM159.709 106.371l.852-.871V70l-1.557-1.836-2.873.946-2.966-1.836-2.614 1.836v4.282l-.927 1.835v28.549l1.742 2.595h8.343ZM232.6 171.309l1.705 69.889 1.576 1.316 4.838-2.28 2.299-27.251 4.801-4.709-.444-2.688a7.407 7.407 0 0 1-2.021-.13 7.799 7.799 0 0 1-5.533-10.139 7.802 7.802 0 0 1 2.456-3.505 7.877 7.877 0 0 1-4.283-9.102 7.796 7.796 0 0 1 4.82-5.227l-.574-3.597-7.582-3.188-2.058.611Z" fill="#72AEE6"/><path d="M247.282 178.91a6.078 6.078 0 0 0-7.648 5.481 6.076 6.076 0 0 0 3.393 5.851 6.081 6.081 0 1 0 4.255-11.332ZM245.891 203.603a6.086 6.086 0 0 0 6.406-2.172 6.08 6.08 0 0 0-8.854-8.254 6.077 6.077 0 0 0-1.231 7.605 6.086 6.086 0 0 0 3.679 2.821ZM108.914 182.71a7.874 7.874 0 0 1-4.282 9.102 7.849 7.849 0 0 1 2.577 3.856 8.011 8.011 0 0 1-5.654 9.788 7.545 7.545 0 0 1-2.04.13l-.426 2.688 4.802 4.709 2.317 27.251 4.82 2.28 1.575-1.316 1.706-69.889-2.058-.611-7.582 3.188-.593 3.597a7.793 7.793 0 0 1 4.838 5.227Z" fill="#72AEE6"/><path d="M102.76 190.644a6.083 6.083 0 0 0 3.917-8.555 6.083 6.083 0 0 0-5.851-3.394 6.084 6.084 0 0 0-5.368 4.116 6.08 6.08 0 0 0-.113 3.533 6.065 6.065 0 0 0 7.415 4.3ZM101.054 203.602a6.075 6.075 0 0 0 4.482-5.066 6.083 6.083 0 0 0-6.416-6.883 6.084 6.084 0 0 0-5.48 7.649 6.063 6.063 0 0 0 7.415 4.3ZM249.08 247.816l35.945.204-.982-4.654-34.277-.166-.686 4.616ZM254.827 209.943l-4.301 30.383 32.553.26-3.764-10.122-22.338.093-2.15-20.614Z" fill="#72AEE6"/><path d="m248.913 135.346 11.29 90.521 17.203-.26-.352-6.284-2.484-3.152-3.708-72.298 4.042-9.158-7.23-23.784a9.26 9.26 0 0 1-2.336-.315 9.569 9.569 0 0 1-6.785-11.734 9.378 9.378 0 0 1 2.336-4.097 9.547 9.547 0 0 1-3.152-16.592l-1.761-5.765-12.161-3.281.909 61.564 4.189 4.635Zm5.858-12.235 15.479 11.586-3.336 6.84-16.518-11.734 4.375-6.692Z" fill="#72AEE6"/><path d="M261.853 92.95a7.6 7.6 0 1 0 3.951-14.68 7.6 7.6 0 0 0-3.951 14.68ZM260.555 99.326a7.604 7.604 0 0 0 2.715 8.008 7.6 7.6 0 1 0 6.554-13.384 7.582 7.582 0 0 0-9.269 5.376ZM61.92 248.02l35.909-.204-.65-4.616-34.294.166-.964 4.654ZM89.95 230.557l-22.338-.093-3.745 10.122 32.534-.26-4.3-30.383-2.15 20.614Z" fill="#72AEE6"/><path d="m97.996 135.346 4.115-4.672.908-61.583-12.18 3.281-1.853 5.766a9.528 9.528 0 0 1-3.133 16.591 9.38 9.38 0 0 1 2.466 4.097 9.565 9.565 0 0 1-6.785 11.734 8.545 8.545 0 0 1-2.354.297l-7.23 23.803 4.06 9.139-3.708 72.298-2.521 3.226-.352 6.266 17.203.278 11.364-90.521Zm-21.338-.649 15.48-11.586 4.374 6.692-16.517 11.734-3.337-6.84Z" fill="#72AEE6"/><path d="M85.056 92.95a7.6 7.6 0 1 0-9.269-5.377 7.637 7.637 0 0 0 9.269 5.376ZM80.904 108.633a7.605 7.605 0 0 0 5.598-6.34 7.6 7.6 0 1 0-14.867.982 7.58 7.58 0 0 0 9.269 5.358ZM50.705 255.342v-30.81l14.72.352.444-5.209-1.446-1.576-15.294-6.377v-24.581l19.799-.742.352-7.23H57.62l-.334-14.478-4.634-4.412 1.557-1.242-2.633-70.277-7.081-2.744v38.318l-24.767 16.944-4.745 43.212 14.626 21.244-.612 13.403 6.84 4.097v41.34L22.12 275.938v21.337l4.022 2.503h34.852l3.337-5.191-1.187-33.368-12.439-5.877ZM42.27 152.586l-6.45 5.71-4.209 3.707a2.183 2.183 0 0 0-.76 1.539l-2.465 21.467-6.47-5.32 3.707-33.183 11.66-5.97 5.043-3.021-.056 15.071Zm3.708 15.628 4.375-3.17 2.465 2.298v9.621h-7.136l.296-8.749Z" fill="#72AEE6"/><path d="m39.86 125.057 3.208-2.187V83.847L51.038 87l-2.316-43.453 4.134-4.765L48.703 0h-8.027l-4.264 38.781 4.264 4.765-.816 81.511Z" fill="#72AEE6"/><path d="M37.803 125.669a2.471 2.471 0 0 1-.185-.63l.685-68.053-4.764 2.373-3.986 72.65 8.454-5.821a1.859 1.859 0 0 1-.204-.519ZM53.115 84.107l4.653-5.469-2.243-19.28-3.837-2.131 1.427 26.88ZM33.558 263.628v-38.929l-5.747-3.448a2.233 2.233 0 0 1-.5-.519l-12.273 5.876L14 263.628l11.976 6.229 7.582-6.229Z" fill="#72AEE6"/></svg>