<?xml version="1.0" encoding="utf-8"?>
<!-- Generator: Adobe Illustrator 19.0.0, SVG Export Plug-In . SVG Version: 6.00 Build 0)  -->
<svg version="1.1" id="レイヤー_1" xmlns="http://www.w3.org/2000/svg" xmlns:xlink="http://www.w3.org/1999/xlink" x="0px"
	 y="0px" viewBox="-233 356.9 128 128" style="enable-background:new -233 356.9 128 128;" xml:space="preserve">
<style type="text/css">
	.st0{fill:#FFFFFF;}
	.st1{opacity:0.5;fill:#EAEAEA;enable-background:new    ;}
	.st2{fill:#E5E5E5;}
	.st3{display:none;}
	.st4{display:inline;}
	.st5{fill:#D70C19;}
	.st6{fill:none;}
	.st7{fill:#E50000;}
</style>
<g id="レイヤー_11">
	<rect x="-233" y="356.9" class="st0" width="128" height="128"/>
	<path class="st1" d="M-169.3,448.3c-25.8,0-48.8-9-63.7-23.1v42.7h128v-43.3C-119.8,439-143.1,448.3-169.3,448.3z"/>
	<path class="st2" d="M-169.3,465.3c-25.8,0-48.8-9-63.7-23.1v42.7h128v-43.3C-119.8,456-143.1,465.3-169.3,465.3z"/>
</g>
<g id="レイヤー_10" class="st3">
	<g class="st4">
		<rect x="-223" y="370.9" class="st0" width="108" height="99"/>
		<path class="st5" d="M-219.8,472.9h38.8v4h-6.1c-1.6,0-2.8,1.5-2.8,3s1.2,3,2.8,3h36.9c1.5,0,2.8-1.5,2.8-3s-1.3-3-2.8-3h-6.8v-4
			h40.4c2.4,0,3.8-1.1,5-3.1c0.5-0.9,0.6-2,0.6-3.1v-94c0-2.8-2.1-5.8-4.9-5.8h-104.6c-2.8,0-5.5,0-5.5,5.8v94
			c0,1.2,0.4,2.2,0.9,3.1C-223.9,471.8-222.1,472.9-219.8,472.9z M-220,371.9c0.3,0,102.2,0,102.9,0s1.1,0.5,1.1,1.3s0,93.5,0,93.5
			c0,0.7-0.5,1.2-1.1,1.2h-102.7c-0.5,0-1.2-0.8-1.2-1.5c0,0,0-92.8,0-93.5C-221,372.1-220.6,371.9-220,371.9z"/>
	</g>
</g>
<g id="EX下">
</g>
<g id="ノーマル">
</g>
<g id="ノーマルのみ">
</g>
<g id="ノーマル上">
</g>
<g id="レイヤー_6">
</g>
<g>
	<g>
		<path class="st0" d="M-187.4,457.4c0.2-0.2,0.2-0.4,0.2-0.6l-0.2-1.7c0-0.2-0.2-0.4-0.4-0.6c0.1-0.1,0.1-0.3,0.1-0.5l-1.6-11.2
			c-0.1-0.4-0.4-0.7-0.8-0.7c-0.1,0-0.2,0-0.3,0.1l0.3-2.4c0.4,0.8,1.1,1.4,1.9,1.6l-0.1,0.8c0,0.3,0,0.5,0.2,0.7l1.5,1.5l0.8,9.7
			c0,0.3,0.2,0.5,0.5,0.7l1.8,0.8c0.3,0.1,0.6,0.1,0.9-0.1l0.6-0.5c0.2-0.1,0.3-0.4,0.3-0.6l0.6-25.7c0-0.4-0.2-0.7-0.6-0.8
			l-0.7-0.2c-0.2-0.1-0.4,0-0.5,0l-2.8,1.2c-0.3,0.1-0.4,0.3-0.5,0.6l-0.2,1.1c-0.4,0-0.7,0-1.1,0.1c-0.7,0.2-1.2,0.5-1.6,1l2-15.9
			l1.3-1.5c0.1-0.1,0.2-0.3,0.2-0.5l0.3-22.6c0-0.3-0.1-0.5-0.3-0.7c-0.2-0.2-0.5-0.2-0.7-0.1l-4.5,1.2c-0.3,0.1-0.5,0.3-0.6,0.6
			l-0.6,1.8c-0.8-0.4-1.6-0.4-2.4-0.2c-1.9,0.5-3.1,2.5-2.6,4.4c0.1,0.5,0.4,1,0.8,1.4c-0.8,0.3-1.5,0.8-1.9,1.6
			c-0.5,0.8-0.6,1.8-0.4,2.7c0.4,1.3,1.4,2.3,2.7,2.6l-2.6,8.5c-0.1,0.2,0,0.4,0,0.6l1.4,3.2l-1.3,26.1l-0.7,1
			c-0.1,0.1-0.2,0.3-0.2,0.5l-0.1,2.3c0,0.2,0.1,0.4,0.2,0.6c0.2,0.2,0.4,0.3,0.6,0.3l6.3,0.1c0.2,0,0.3-0.1,0.5-0.2l0,0.2l-7.5,0
			c0,0,0,0,0,0c-0.3,0-0.6,0.2-0.8,0.5l-1.4,3.7c-0.1,0.2-0.1,0.4,0,0.6c-0.2,0.1-0.3,0.3-0.4,0.5l-0.4,1.7c0,0.2,0,0.5,0.2,0.7
			c0.2,0.2,0.4,0.3,0.6,0.3c0,0,0,0,0,0l13.2-0.1C-187.7,457.6-187.5,457.5-187.4,457.4z M-189.6,413.3l-4.6,3.3l-0.5-1l4.4-3.3
			L-189.6,413.3z M-188.9,435.8c-0.3,0.2-0.6,0.4-0.8,0.7l0.2-1.5C-189.4,435.3-189.2,435.6-188.9,435.8z"/>
		<path class="st0" d="M-118.8,455c0-0.2-0.2-0.4-0.4-0.5c0.1-0.2,0.1-0.4,0-0.6l-1.4-3.7c-0.1-0.3-0.4-0.5-0.8-0.5c0,0,0,0,0,0
			l-7.5,0l0-0.2c0.1,0.1,0.3,0.2,0.5,0.2l6.3-0.1c0.2,0,0.4-0.1,0.6-0.3c0.2-0.2,0.2-0.4,0.2-0.6l-0.1-2.3c0-0.2-0.1-0.3-0.2-0.5
			l-0.7-1l-1.3-26.1l1.4-3.2c0.1-0.2,0.1-0.4,0-0.6l-2.6-8.5c1.3-0.3,2.3-1.2,2.7-2.6c0.2-0.9,0.1-1.9-0.4-2.7
			c-0.4-0.7-1.1-1.3-1.9-1.6c0.4-0.4,0.6-0.9,0.8-1.4c0.2-0.9,0.1-1.9-0.4-2.7s-1.3-1.4-2.2-1.7c-0.8-0.2-1.7-0.1-2.4,0.2l-0.6-1.8
			c-0.1-0.3-0.3-0.5-0.6-0.6l-4.5-1.2c-0.2-0.1-0.5,0-0.7,0.1c-0.2,0.2-0.3,0.4-0.3,0.7l0.3,22.6c0,0.2,0.1,0.4,0.2,0.5l1.3,1.5
			l2,15.9c-0.4-0.5-0.9-0.9-1.6-1c-0.4-0.1-0.7-0.1-1.1-0.1l-0.2-1.1c0-0.3-0.2-0.5-0.5-0.6l-2.8-1.2c-0.2-0.1-0.4-0.1-0.5,0
			l-0.8,0.2c-0.4,0.1-0.6,0.4-0.6,0.8l0.6,25.7c0,0.2,0.1,0.5,0.3,0.6l0.6,0.5c0.2,0.2,0.6,0.3,0.9,0.1l1.8-0.8
			c0.3-0.1,0.4-0.4,0.5-0.7l0.8-9.7l1.5-1.5c0.2-0.2,0.3-0.5,0.2-0.7l-0.1-0.8c0.2-0.1,0.5-0.2,0.7-0.3c0.5-0.3,1-0.8,1.2-1.3
			l0.3,2.4c-0.1,0-0.2-0.1-0.3-0.1c-0.4,0.1-0.8,0.3-0.8,0.7l-1.6,11.2c0,0.2,0,0.3,0.1,0.5c-0.2,0.1-0.3,0.3-0.4,0.6l-0.2,1.7
			c0,0.2,0,0.5,0.2,0.6c0.2,0.2,0.4,0.3,0.6,0.3l13.2,0.1c0,0,0,0,0,0c0.2,0,0.5-0.1,0.6-0.3c0.2-0.2,0.2-0.4,0.2-0.7L-118.8,455z
			 M-125.7,415.5l-0.5,1l-4.6-3.3l0.7-1.1L-125.7,415.5z M-131.5,435.8c0.2-0.2,0.4-0.5,0.6-0.9l0.2,1.5
			C-130.9,436.2-131.2,436-131.5,435.8z"/>
		<path class="st0" d="M-130.4,471.7c-0.1-0.2-0.2-0.3-0.3-0.4l-7-4.4c-0.1,0-0.1-0.1-0.2-0.1l-1.3-0.4c-0.1,0-0.2,0-0.2,0h-13.4
			c-0.1,0-0.3,0-0.4,0.1l-1.7,1c-0.2,0.1-0.4,0.4-0.4,0.7v3.8l-0.2,0.1c-0.3,0.1-0.4,0.4-0.4,0.7v2.4c0,0.3,0.2,0.6,0.5,0.8l1.5,0.6
			c0.1,0,0.2,0.1,0.3,0.1h23c0.1,0,0.2,0,0.3-0.1l0.7-0.3c0.4-0.2,0.6-0.6,0.5-1L-130.4,471.7z"/>
		<path class="st0" d="M-155.7,405.4c0.2,0.2,0.4,0.2,0.6,0.2h3.1c0.3,0,0.5-0.1,0.7-0.4l0.6-1c0.1-0.1,0.1-0.3,0.1-0.5v-10.5
			c0-0.1,0-0.3-0.1-0.4l-0.3-0.5v-1.4c0-0.3-0.1-0.5-0.3-0.7l-0.8-0.6c0,0,0-0.1,0-0.1l-0.4-13.3c0-0.1,0-0.2-0.1-0.3
			c0.2-0.1,0.3-0.4,0.3-0.6v-0.7c0-0.5-0.4-0.8-0.8-0.8h-1.4c-0.5,0-0.8,0.4-0.8,0.8v0.7c0,0.2,0.1,0.5,0.3,0.6l0,0
			c0,0.1-0.1,0.2-0.1,0.3l-0.5,13.5c0,0.1,0,0.1,0,0.2c0,0,0,0,0,0l-0.6,0.7c-0.1,0.1-0.2,0.3-0.2,0.5v13c0,0.2,0.1,0.4,0.2,0.6
			L-155.7,405.4z"/>
		<path class="st0" d="M-180,451.7l-3,11.6c-0.1,0.3,0,0.5,0.2,0.7l1.4,1.6c0.2,0.2,0.4,0.3,0.6,0.3h13.4c0.2,0,0.4-0.1,0.5-0.2
			l1.2-1c0.2-0.2,0.3-0.4,0.3-0.6v-5c0-0.1,0-0.3-0.1-0.4l-0.3-0.7c-0.1-0.2-0.2-0.3-0.4-0.4l-4.6-2l-1.2-3.7c0-0.1-0.1-0.2-0.2-0.3
			l-0.7-0.7c-0.1-0.1-0.3-0.2-0.5-0.2l-4.6-0.4c-0.2,0-0.4,0-0.6,0.2l-1,0.8C-179.8,451.4-179.9,451.5-180,451.7z"/>
		<path class="st0" d="M-169,405.3c0.2,0.2,0.4,0.4,0.7,0.4h3.1c0.2,0,0.4-0.1,0.6-0.2l0.3-0.3c0.1-0.2,0.2-0.4,0.2-0.6v-13
			c0-0.2-0.1-0.4-0.2-0.5l-0.6-0.7c0,0,0,0,0,0c0-0.1,0-0.1,0-0.2l-0.5-13.5c0-0.1,0-0.2-0.1-0.3l0,0c0.2-0.1,0.3-0.4,0.3-0.6v-0.7
			c0-0.5-0.4-0.8-0.8-0.8h-1.4c-0.5,0-0.8,0.4-0.8,0.8v0.7c0,0.3,0.1,0.5,0.3,0.6c0,0.1-0.1,0.2-0.1,0.3l-0.4,13.3c0,0,0,0.1,0,0.1
			l-0.8,0.6c-0.2,0.2-0.3,0.4-0.3,0.7v1.4l-0.3,0.5c-0.1,0.1-0.1,0.2-0.1,0.4v10.5c0,0.2,0,0.3,0.1,0.5L-169,405.3z"/>
		<path class="st0" d="M-154.9,464.1c0,0.2,0.1,0.5,0.3,0.6l1.2,1c0.1,0.1,0.3,0.2,0.5,0.2h13.4c0.2,0,0.5-0.1,0.6-0.3l1.4-1.6
			c0.2-0.2,0.2-0.5,0.2-0.7l-3-11.6c0-0.2-0.1-0.3-0.3-0.4l-1-0.8c-0.2-0.1-0.4-0.2-0.6-0.2l-4.6,0.4c-0.2,0-0.4,0.1-0.5,0.2
			l-0.7,0.7c-0.1,0.1-0.2,0.2-0.2,0.3l-1.2,3.7l-4.6,2c-0.2,0.1-0.3,0.2-0.4,0.4l-0.3,0.7c-0.1,0.1-0.1,0.2-0.1,0.4V464.1z"/>
		<path class="st0" d="M-153.5,456.7C-153.5,456.7-153.5,456.7-153.5,456.7c0.1,0,0.2,0,0.3-0.1l1.9-0.7c0.1-0.1,1.4-0.7,1.6-2
			l0.1-0.5c0.1-0.7,0.2-1.6,0.3-2c0.1-0.5,0.2-0.6,0.6-0.7c1.5-0.5,4.8-1.6,6-2c0.8-0.3,1.6-0.9,1.2-2.4l-0.3-0.9
			c-0.6-2.4-1-3.7-1.2-4.1c-0.2-0.4-0.6-1.3-1.9-0.9c-0.7,0.2-8.6,2.7-8.6,2.7c-1.3,0.4-1.3,2.1-1.3,2.7v9.7
			C-154.9,456.2-154.2,456.6-153.5,456.7z"/>
		<path class="st0" d="M-155.5,433.7c-0.2,0.3-0.7,1.4-0.4,2.3c0.3,1.3,2.1,2.6,8.9,1.5c5.4-0.9,6.7-2,7.2-2.7
			c0.5-0.7,0.3-1.4,0.2-1.7c-0.1-0.7-0.7-1.4-1.3-1.7c0.2-0.2,0.3-0.4,0.4-0.6c0.5-0.9,0.5-1.9,0.1-2.9c-0.3-0.8-1.1-1.3-1.9-1.6
			c0-0.1,0-0.3,0-0.4l-0.6-2.4l2.2-1.4c0.3-0.2,0.4-0.4,0.4-0.7l-0.7-10.2c0-0.3-0.2-0.5-0.4-0.6l-1-0.7c-0.2-0.1-0.3-0.1-0.5-0.1
			l7.3-17.6c0-0.1,0.1-0.2,0.1-0.3V391c0-0.3-0.2-0.6-0.5-0.7l-3.1-1.4c-0.1,0-0.2-0.1-0.3-0.1h-0.7c-0.3,0-0.6,0.2-0.7,0.5
			l-8.9,17.8c-0.2-0.2-0.4-0.3-0.7-0.3l-4.9,0.4c-0.3,0-0.6,0.2-0.7,0.5l-0.5,1.2h-7.5l-0.5-1.2c-0.1-0.3-0.4-0.5-0.7-0.5l-4.9-0.4
			c-0.3,0-0.5,0.1-0.7,0.3l-8.9-17.8c-0.1-0.3-0.4-0.5-0.7-0.5h-0.7c-0.1,0-0.2,0-0.3,0.1l-3.1,1.4c-0.3,0.1-0.5,0.4-0.5,0.7v0.7
			c0,0.1,0,0.2,0.1,0.3l7.3,17.6c-0.2,0-0.4,0-0.5,0.1l-1,0.7c-0.2,0.1-0.3,0.4-0.4,0.6l-0.7,10.2c0,0.3,0.1,0.6,0.4,0.7l2.2,1.4
			l-0.6,2.4c0,0.1,0,0.3,0,0.4c-0.7,0.3-1.5,0.7-1.9,1.6c-0.4,1-0.4,2,0.1,2.9c0.1,0.2,0.3,0.4,0.4,0.6c-0.6,0.3-1.2,1-1.3,1.7
			c-0.1,0.3-0.3,0.9,0.2,1.7c0.5,0.8,1.8,1.9,7.2,2.7c1.8,0.3,3.2,0.4,4.4,0.4c3.3,0,4.3-1,4.6-1.9c0.2-0.9-0.3-2-0.4-2.3
			c0-0.1-0.1-0.1-0.1-0.2c0.4-0.3,0.6-0.7,0.8-1.1c0.3-0.6,0.3-1.3,0.1-2.2c0.5-0.2,0.9-0.4,1.2-0.6h5.6c0.3,0.1,0.7,0.4,1.2,0.6
			c-0.3,0.9-0.3,1.6,0.1,2.3c0.2,0.3,0.4,0.7,0.7,1C-155.5,433.6-155.5,433.6-155.5,433.7z"/>
		<path class="st0" d="M-164.8,472.2l-0.2-0.1v-3.8c0-0.3-0.2-0.6-0.4-0.7l-1.7-1c-0.1-0.1-0.3-0.1-0.4-0.1h-13.4
			c-0.1,0-0.2,0-0.2,0l-1.3,0.4c-0.1,0-0.1,0.1-0.2,0.1l-7,4.4c-0.2,0.1-0.3,0.3-0.3,0.4l-1.2,3.7c-0.1,0.4,0.1,0.9,0.5,1l0.7,0.3
			c0.1,0,0.2,0.1,0.3,0.1h23c0.1,0,0.2,0,0.3-0.1l1.5-0.6c0.3-0.1,0.5-0.4,0.5-0.8V473C-164.3,472.7-164.5,472.4-164.8,472.2z"/>
		<path class="st0" d="M-177.5,448.7c1.1,0.4,4.5,1.5,6,2c0.4,0.1,0.5,0.2,0.6,0.7c0.1,0.4,0.2,1.2,0.3,2l0.1,0.6
			c0.2,1.3,1.4,1.9,1.6,2l1.8,0.7c0.1,0,0.2,0.1,0.3,0.1c0,0,0,0,0,0c0.7,0,1.4-0.5,1.4-1.3v-9.7c0-0.6,0-2.3-1.3-2.7
			c0,0-7.9-2.5-8.6-2.7c-1.4-0.4-1.7,0.5-1.9,1c-0.1,0.3-0.5,1.7-1.1,4.1l-0.3,0.9C-179.1,447.8-178.3,448.4-177.5,448.7z"/>
	</g>
	<path class="st6" d="M-213.8,419.6l-1.1,12.3l1.5,1.8l0.5-7.5c0-0.2,0.1-0.4,0.3-0.6l2-1.7l0.5-6.5L-213.8,419.6z"/>
	<polygon class="st6" points="-205.5,426.7 -206.7,427.9 -206.7,430.8 -204.9,430.8 -204.9,427.3 	"/>
	<g>
		<path d="M-172.6,434.4c-3.4-0.5-6-1.6-6.4-2.3c-0.4,0.2-0.8,0.7-0.9,1.1c-0.1,0.5-1.1,2.3,6.7,3.5c6.6,1.1,7.8-0.3,8-0.9
			c0.2-0.6-0.4-1.7-0.4-1.7C-167.2,434.7-169.2,434.9-172.6,434.4z"/>
		<path d="M-174.8,411.6l4.2-1.8v-0.7l-9.7-19.4h-0.7l-3.1,1.4v0.7l8.2,19.9H-174.8z M-179.5,394.7l-1.2,0.5h-0.3l-1.3-3.5v-0.2
			l0.9-0.4h0.2l1.7,3.3V394.7z"/>
		<path d="M-141.4,432.1c-0.5,0.7-3,1.8-6.4,2.3c-3.4,0.5-5.4,0.4-7-0.3c0,0-0.5,1.1-0.4,1.7c0.2,0.6,1.4,2,8,0.9
			c7.8-1.2,6.8-3,6.7-3.5C-140.6,432.7-141,432.2-141.4,432.1z"/>
		<path d="M-147.8,433.3c7.4-1.1,7.1-3.9,6.6-5.2c-0.5-1.2-2.7-1.4-2.7-1.4l0.8-0.7l-0.8-3l2.7-1.7l-0.7-10.2l-1-0.7l-1,2.5
			l-1.7,0.4l-5.6-2.6v-1.7l0.9-1.5l-4.9,0.4l-0.7,1.7h-4.3h0h-4.3l-0.7-1.7l-4.9-0.4l0.9,1.5v1.7l-5.6,2.6l-1.7-0.4l-1-2.5l-1,0.7
			l-0.7,10.2l2.7,1.7l-0.8,3l0.8,0.7c0,0-2.2,0.2-2.7,1.4c-0.5,1.2-0.8,4,6.6,5.2c7.1,1.1,7.3-0.6,7.7-1.2c0.3-0.6,0.1-1.5-0.3-2.3
			c0.7-0.2,2-0.9,2-0.9h3h0h3c0,0,1.4,0.7,2,0.9c-0.4,0.7-0.6,1.6-0.3,2.3C-155.1,432.7-154.9,434.4-147.8,433.3z"/>
		<path d="M-139.4,389.7h-0.7l-9.7,19.4v0.7l4.2,1.8h1l8.2-19.9V391L-139.4,389.7z M-138.1,391.7l-1.3,3.5h-0.3l-1.2-0.5v-0.2
			l1.7-3.3h0.2l0.9,0.4V391.7z"/>
	</g>
	<g>
		<g>
			<polygon class="st7" points="-152.9,467.3 -139.5,467.3 -138.2,467.6 -131.2,472 -130,475.7 -130.7,476 -153.7,476 -155.2,475.4 
				-155.2,473 -154.6,472.6 -154.6,468.3 			"/>
			<polygon points="-153.8,458.4 -148.8,456.3 -147.5,452.2 -146.7,451.5 -142.2,451.1 -141.2,451.9 -138.2,463.5 -139.6,465.1 
				-153,465.1 -154.1,464.1 -154.1,459.1 			"/>
			<path class="st7" d="M-153.4,443.8c0,0,7.9-2.5,8.6-2.7c0.7-0.2,0.7,0.1,1,0.5c0.2,0.5,1.2,4.4,1.4,4.9c0.1,0.5,0.3,1.1-0.7,1.4
				c-1.1,0.4-4.5,1.5-5.9,2c-0.7,0.2-1,0.6-1.1,1.3c-0.1,0.6-0.2,1.8-0.3,2.6c-0.1,0.9-1.1,1.3-1.1,1.3l-1.8,0.7c0,0-0.6,0-0.6-0.5
				c0-2.3,0-9,0-9.7C-154.1,445-154.1,444-153.4,443.8z"/>
		</g>
		<g>
			<polygon class="st7" points="-167.5,467.3 -180.9,467.3 -182.2,467.6 -189.2,472 -190.4,475.7 -189.7,476 -166.7,476 
				-165.2,475.4 -165.2,473 -165.8,472.6 -165.8,468.3 			"/>
			<polygon points="-166.6,458.4 -171.6,456.3 -173,452.2 -173.7,451.5 -178.2,451.1 -179.2,451.9 -182.2,463.5 -180.8,465.1 
				-167.4,465.1 -166.3,464.1 -166.3,459.1 			"/>
			<path class="st7" d="M-167,443.8c0,0-7.9-2.5-8.6-2.7c-0.7-0.2-0.7,0.1-1,0.5c-0.2,0.5-1.2,4.4-1.4,4.9c-0.1,0.5-0.3,1.1,0.7,1.4
				c1.1,0.4,4.5,1.5,5.9,2c0.7,0.2,1,0.6,1.1,1.3c0.1,0.6,0.2,1.8,0.3,2.6c0.1,0.9,1.1,1.3,1.1,1.3l1.8,0.7c0,0,0.6,0,0.6-0.5
				c0-2.3,0-9,0-9.7C-166.3,445-166.4,444-167,443.8z"/>
		</g>
	</g>
	<g>
		<path d="M-160.3,395.9"/>
		<polygon points="-154,390.5 -153,389.9 -153.3,376.6 -153.5,376.3 -153.5,375.6 -153.1,375.6 -153.1,374.9 -154.4,374.9 
			-154.4,375.6 -154.1,375.6 -154.1,376.3 -154.2,376.6 -154.7,390.1 		"/>
		<polygon points="-154.9,390.8 -153.8,391.2 -152.7,390.5 -151.8,391.2 -151.8,392.8 -151.5,393.4 -151.5,403.9 -152.1,404.9 
			-155.2,404.9 -155.5,404.6 -155.5,391.5 		"/>
		<polygon points="-166.4,390.5 -167.5,389.9 -167.1,376.6 -166.9,376.3 -166.9,375.6 -167.3,375.6 -167.3,374.9 -166,374.9 
			-166,375.6 -166.3,375.6 -166.3,376.3 -166.2,376.6 -165.7,390.1 		"/>
		<polygon points="-165.5,390.8 -166.6,391.2 -167.7,390.5 -168.6,391.2 -168.6,392.8 -169,393.4 -169,403.9 -168.3,404.9 
			-165.3,404.9 -164.9,404.6 -164.9,391.5 		"/>
	</g>
	<g>
		<g>
			<path class="st7" d="M-132.9,442.3l-0.2-1c-0.2,0-0.5,0-0.7,0c-1.6-0.4-2.5-2-2.1-3.6c0.2-0.6,0.5-1,0.9-1.4
				c-1.2-0.6-1.9-2-1.6-3.3c0.2-0.9,0.9-1.6,1.8-1.9l-0.2-1.3l-2.8-1.2l-0.8,0.2l0.6,25.7l0.6,0.5l1.8-0.8l0.9-10L-132.9,442.3z"/>
			<circle cx="-133.7" cy="433.7" r="2.2"/>
			<circle cx="-133" cy="438.4" r="2.2"/>
		</g>
		<g>
			<path class="st7" d="M-187.5,442.3l0.2-1c0.2,0,0.5,0,0.7,0c1.6-0.4,2.5-2,2.1-3.6c-0.2-0.6-0.5-1-0.9-1.4c1.2-0.6,1.9-2,1.6-3.3
				c-0.2-0.9-0.9-1.6-1.8-1.9l0.2-1.3l2.8-1.2l0.8,0.2l-0.6,25.7l-0.6,0.5l-1.8-0.8l-0.9-10L-187.5,442.3z"/>
			<circle cx="-186.7" cy="433.7" r="2.2"/>
			<circle cx="-187.4" cy="438.4" r="2.2"/>
		</g>
	</g>
	<g>
		<g>
			<polygon points="-132.2,455.1 -119.6,455.2 -119.2,456.9 -132.4,456.8 			"/>
			<polygon points="-130.3,442.9 -129.5,450.5 -121.3,450.4 -119.9,454.2 -131.9,454.1 			"/>
			<path class="st7" d="M-122.2,446.4l-0.9-1.2l-1.3-26.6l1.5-3.4l-2.7-8.7c-0.3,0-0.6,0-0.9-0.1c-1.9-0.5-3-2.4-2.5-4.3
				c0.2-0.6,0.5-1.1,0.9-1.5c-1.8-0.6-2.8-2.4-2.4-4.3c0.2-0.8,0.6-1.4,1.2-1.8l-0.6-2.1l-4.5-1.2l0.3,22.6l1.5,1.7l4.1,33.2
				l6.3-0.1L-122.2,446.4z M-125.9,417.8l-6.1-4.3l1.6-2.5l5.7,4.3L-125.9,417.8z"/>
			<circle cx="-127" cy="397.2" r="2.8"/>
			<circle cx="-125.5" cy="403" r="2.8"/>
		</g>
		<g>
			<polygon points="-188.2,455.1 -200.8,455.2 -201.2,456.9 -188,456.8 			"/>
			<polygon points="-190.1,442.9 -190.9,450.5 -199.1,450.4 -200.5,454.2 -188.5,454.1 			"/>
			<path class="st7" d="M-198.4,448.7l6.3,0.1l4.1-33.2l1.5-1.7l0.3-22.6l-4.5,1.2l-0.6,2.1c0.6,0.5,1,1.1,1.2,1.8
				c0.5,1.8-0.6,3.7-2.4,4.3c0.4,0.4,0.7,0.9,0.9,1.5c0.5,1.9-0.6,3.8-2.5,4.3c-0.3,0.1-0.6,0.1-0.9,0.1l-2.7,8.7l1.5,3.4l-1.3,26.6
				l-0.9,1.2L-198.4,448.7z M-195.8,415.3l5.7-4.3l1.6,2.5l-6.1,4.3L-195.8,415.3z"/>
			<circle cx="-193.4" cy="397.2" r="2.8"/>
			<circle cx="-194.9" cy="403" r="2.8"/>
		</g>
	</g>
	<path class="st0" d="M-197.9,431.1c-0.2-0.2-0.4-0.3-0.6-0.3h-3.5l-0.1-4.5c0-0.2-0.1-0.4-0.3-0.6l-1-1c0.1-0.1,0.2-0.3,0.2-0.5
		l-1-25.8c0-0.2-0.1-0.4-0.2-0.5c0-0.1,0-0.1,0-0.1l0-0.2c0.2,0,0.4-0.1,0.6-0.3l1.7-2c0.1-0.2,0.2-0.4,0.2-0.6l-0.8-7.1
		c0-0.3-0.2-0.5-0.4-0.6l-1.4-0.8c-0.1-0.1-0.3-0.1-0.4-0.1l-0.2-3.9l1.3-1.5c0.1-0.2,0.2-0.4,0.2-0.6l-1.5-14.2
		c0-0.4-0.4-0.7-0.8-0.7h-2.9c-0.4,0-0.8,0.3-0.8,0.7l-1.6,14.2c0,0.2,0,0.5,0.2,0.6l1.4,1.5l0,3.8c-0.1,0-0.3,0-0.4,0.1l-1.7,0.9
		c-0.3,0.1-0.4,0.4-0.4,0.7l-1.5,26.6c0,0.2,0.1,0.4,0.2,0.5l-3.4,2.3c-0.2,0.1-0.3,0.3-0.3,0.6l-1.7,15.9c0,0.2,0,0.4,0.1,0.6
		l5.2,7.6l-0.2,4.4c-0.1,0-0.1,0-0.2,0l-4.5,2.2c-0.3,0.1-0.5,0.4-0.5,0.7l-0.4,13.7c0,0.3,0.2,0.6,0.4,0.7l4.1,2.1l-1.3,1.1
		c-0.2,0.2-0.3,0.4-0.3,0.6v7.8c0,0.3,0.1,0.5,0.4,0.7l1.5,0.9c0.1,0.1,0.3,0.1,0.4,0.1h12.8c0.3,0,0.5-0.1,0.7-0.4l1.2-1.9
		c0.1-0.1,0.1-0.3,0.1-0.5l-0.4-12.2c0-0.3-0.2-0.6-0.5-0.7l-4.1-2v-10l4.6,0.1c0.5,0,0.8-0.3,0.8-0.7l0.2-1.9
		c0-0.2-0.1-0.5-0.2-0.6l-0.5-0.6c-0.1-0.1-0.2-0.2-0.3-0.2l-5.1-2.1v-7.7l6.5-0.2c0.4,0,0.8-0.4,0.8-0.8l0.1-2.7
		C-197.6,431.4-197.7,431.2-197.9,431.1z M-208.4,421.8l-2.4,2.1l-2,1.7c-0.2,0.1-0.3,0.3-0.3,0.6l-0.5,7.5l-1.5-1.8l1.1-12.3
		l3.6-2.2l1.9-1.1V421.8z M-206.7,430.8v-2.9l1.2-1.2l0.6,0.5l0,3.5H-206.7z"/>
	<polygon points="-210.8,423.9 -208.4,421.8 -208.4,416.3 -210.2,417.4 	"/>
	<path d="M-210,412.1l-3.1,2.1l1.5-26.6l1.7-0.9l-0.3,25c0,0.1,0,0.2,0.1,0.2C-210,412-210,412.1-210,412.1z M-208.1,410.9v-14.3
		l2.9,1.2l-0.8-16l1.5-1.7l-1.5-14.2h-2.9l-1.6,14.2l1.6,1.7l-0.3,29.9L-208.1,410.9z M-199.7,446.5l-0.2,1.9l-5.4-0.1v11.3l4.6,2.2
		l0.4,12.2l-1.2,1.9h-12.8l-1.5-0.9v-7.8l5-4.2v-15.2l-2.5-1.5l0.3-4.9l-5.4-7.8l1.7-15.9l9.1-6.2v-14.1l2.6,1l1,25.8l-0.6,0.5
		l1.7,1.6l0.1,5.3h4.3l-0.1,2.7l-7.3,0.3v9l5.6,2.3L-199.7,446.5z M-207.6,414.9l-7.1,4.2l-1.2,13.1l3,3.7l0.6-9.6l4.6-4.1V414.9z
		 M-207.6,431.6h3.5l0-4.7l-1.5-1.3l-2,1.9V431.6z M-211.6,448.3l-2.1-1.3c-0.1,0-0.1-0.1-0.2-0.2l-4.5,2.2l-0.4,13.7l4.4,2.3
		l2.8-2.3V448.3z M-202.7,394.7l-0.8-7.1l-1.4-0.8l0.5,9.9L-202.7,394.7z"/>
</g>
</svg>
