<?xml version="1.0" encoding="utf-8"?>
<!-- Generator: Adobe Illustrator 19.0.0, SVG Export Plug-In . SVG Version: 6.00 Build 0)  -->
<svg version="1.1" xmlns="http://www.w3.org/2000/svg" xmlns:xlink="http://www.w3.org/1999/xlink" x="0px" y="0px"
	 viewBox="0 0 128 128" style="enable-background:new 0 0 128 128;" xml:space="preserve">
<style type="text/css">
	.st0{fill:#FFFFFF;}
	.st1{opacity:0.5;fill:#EAEAEA;}
	.st2{fill:#E5E5E5;}
	.st3{display:none;}
	.st4{display:inline;}
	.st5{fill:#D70C19;}
	.st6{fill:#4D4D4D;stroke:#FFFFFF;stroke-miterlimit:10;}
	.st7{fill:#7C7C7C;stroke:#FFFFFF;stroke-miterlimit:10;}
	.st8{fill:#9FA0A0;stroke:#FFFFFF;stroke-miterlimit:10;}
	.st9{fill:#216289;stroke:#FFFFFF;stroke-miterlimit:10;}
	.st10{fill:#004D6A;stroke:#FFFFFF;stroke-miterlimit:10;}
	.st11{fill:none;stroke:#FFFFFF;stroke-miterlimit:10;}
	.st12{fill:#333333;stroke:#FFFFFF;stroke-miterlimit:10;}
	.st13{fill:#4D4D4D;}
	.st14{fill:#636262;}
	.st15{fill:#9FA0A0;}
	.st16{fill:#C63239;}
	.st17{fill:#595959;}
	.st18{fill:none;stroke:#055177;stroke-width:0.25;stroke-miterlimit:10;}
	.st19{fill:#333333;}
</style>
<g id="レイヤー_11">
	<rect class="st0" width="128" height="128"/>
	<path class="st1" d="M63.7,91.4c-25.8,0-48.8-9-63.7-23.1V111h128V67.7C113.2,82.1,89.9,91.4,63.7,91.4z"/>
	<path class="st2" d="M63.7,108.4c-25.8,0-48.8-9-63.7-23.1V128h128V84.7C113.2,99.1,89.9,108.4,63.7,108.4z"/>
</g>
<g id="レイヤー_10" class="st3">
	<g class="st4">
		<rect x="10" y="14" class="st0" width="108" height="99"/>
		<path class="st5" d="M13.2,116H52v4h-6.1c-1.6,0-2.8,1.5-2.8,3c0,1.5,1.2,3,2.8,3h36.9c1.5,0,2.8-1.5,2.8-3c0-1.5-1.3-3-2.8-3H76
			v-4h40.4c2.4,0,3.8-1.1,5-3.1c0.5-0.9,0.6-2,0.6-3.1v-94c0-2.8-2.1-5.8-4.9-5.8H12.5C9.7,10,7,10,7,15.8v94c0,1.2,0.4,2.2,0.9,3.1
			C9.1,114.9,10.9,116,13.2,116z M13,15c0.3,0,102.2,0,102.9,0s1.1,0.5,1.1,1.3c0,0.8,0,93.5,0,93.5c0,0.7-0.5,1.2-1.1,1.2H13.2
			c-0.5,0-1.2-0.8-1.2-1.5c0,0,0-92.8,0-93.5C12,15.2,12.4,15,13,15z"/>
	</g>
</g>
<g id="EX下">
</g>
<g id="ノーマル">
</g>
<g id="ノーマルのみ">
</g>
<g id="ノーマル上">
</g>
<g id="EX上">
	<g>
		<g>
			<path class="st6" d="M33.2,27.5l0.3,21.6c0,0,0.4,1.8,1.7,1.8s2-1.8,2-1.8l-1.3-21.6c0,0-0.6-1.4-1.5-1.4S33.2,27.5,33.2,27.5z"
				/>
			<path class="st6" d="M28,27.5l-0.3,21.6c0,0-0.4,1.8-1.7,1.8c-1.3,0-2-1.8-2-1.8l1.3-21.6c0,0,0.6-1.4,1.5-1.4S28,27.5,28,27.5z"
				/>
			<polygon class="st6" points="29.6,60.5 29.6,52 32.5,53 31.8,16.8 33.2,15.7 31.8,7.1 29.3,7.1 28,15.6 29.2,16.8 28.7,61.1 			
				"/>
			<polygon class="st6" points="28.4,75.7 29.9,74.2 29.9,65.8 28.7,66.8 			"/>
			<polygon class="st6" points="23.8,96.5 26.1,98 26.1,109.9 23.3,111.9 19.9,110.1 20.3,98.2 			"/>
			<path class="st7" d="M38.8,109.4l-6.3-1.9v-7.3l4.7-1l-0.4-3.3l-5,0.2V85.7l4.6-0.8l-0.1-2.6l-1.7,0.2l-0.1-3.9l-1.5-1.4l0.8-0.8
				L33,54.1l-2.6-0.6v7.7l-8,5.8l-1.3,18l4.7,6.8l-0.2,4.3l2.2,1.3v13.2l-4.4,3.6v6.8l2.3,0.8h12.5l1.1-1.7L38.8,109.4z M30.5,75
				l-4,3.5l-0.5,8.3l-2.6-3.2l1.2-15.8l6-3.6V75z M30.9,79.5l1.3-1.5l1.3,1.1v3.6l-2.6,0.5V79.5z"/>
		</g>
		<g>
			<path class="st8" d="M61.6,85.5c-3-0.4-5.2-1.4-5.6-2c-0.4,0.2-0.7,0.6-0.8,1c-0.1,0.4-0.9,2,5.8,3c5.8,0.9,6.8-0.2,7-0.8
				c0.1-0.6-0.3-1.5-0.3-1.5C66.3,85.8,64.6,86,61.6,85.5z"/>
			<path class="st8" d="M59.7,65.7l3.7-1.6v-0.6L55,46.7h-0.6l-2.7,1.2v0.6l7.2,17.3H59.7z M55.7,51l-1.1,0.5h-0.2l-1.1-3v-0.2
				L54,48h0.2l1.5,2.9V51z"/>
			<path class="st8" d="M88.7,83.5c-0.4,0.6-2.6,1.6-5.6,2c-3,0.4-4.7,0.3-6.1-0.3c0,0-0.5,0.9-0.3,1.5c0.1,0.6,1.2,1.7,7,0.8
				c6.8-1.1,5.9-2.6,5.8-3C89.5,84.1,89.1,83.7,88.7,83.5z"/>
			<path class="st8" d="M83.2,84.6c6.4-1,6.2-3.4,5.8-4.5c-0.5-1.1-2.3-1.2-2.3-1.2l0.7-0.6l-0.7-2.6l2.3-1.5l-0.6-8.9l-0.9-0.6
				l-0.9,2.2l-1.5,0.3L80.2,65v-1.5l0.7-1.3l-4.2,0.4l-0.6,1.5h-3.7h0h-3.7l-0.6-1.5l-4.2-0.4l0.7,1.3V65l-4.9,2.2l-1.5-0.3
				l-0.9-2.2l-0.9,0.6l-0.6,8.9l2.3,1.5l-0.7,2.6l0.7,0.6c0,0-1.9,0.2-2.3,1.2c-0.5,1.1-0.7,3.5,5.8,4.5c6.1,0.9,6.4-0.5,6.7-1.1
				c0.3-0.6,0.1-1.3-0.3-2c0.6-0.2,1.8-0.8,1.8-0.8h2.6h0H75c0,0,1.2,0.6,1.8,0.8c-0.3,0.6-0.6,1.4-0.3,2
				C76.8,84.1,77,85.5,83.2,84.6z"/>
			<path class="st8" d="M90.4,46.7h-0.6l-8.4,16.8v0.6l3.7,1.6h0.8l7.2-17.3v-0.6L90.4,46.7z M91.6,48.5l-1.1,3h-0.2L89.1,51v-0.2
				l1.5-2.9h0.2l0.8,0.3V48.5z"/>
		</g>
		<g>
			<g>
				<polygon class="st9" points="78.8,114.1 90.4,114.1 91.5,114.4 97.6,118.2 98.6,121.4 98,121.6 78,121.6 76.7,121.1 76.7,119 
					77.3,118.7 77.3,115 				"/>
				<polygon class="st10" points="78,106.4 82.3,104.5 83.5,101 84.1,100.4 88,100 88.9,100.7 91.5,110.8 90.3,112.2 78.7,112.2 
					77.7,111.3 77.7,107 				"/>
				<path class="st9" d="M78.3,93.7c0,0,6.9-2.2,7.4-2.4c0.6-0.2,0.6,0.1,0.8,0.5c0.2,0.4,1.1,3.8,1.2,4.3s0.2,0.9-0.6,1.2
					c-1,0.4-3.9,1.3-5.1,1.7c-0.6,0.2-0.9,0.5-1,1.1c-0.1,0.5-0.2,1.5-0.3,2.2c-0.1,0.8-1,1.2-1,1.2l-1.6,0.6c0,0-0.6,0-0.6-0.4
					c0-2,0-7.9,0-8.4C77.7,94.7,77.7,93.9,78.3,93.7z"/>
			</g>
			<g>
				<polygon class="st9" points="66,114.1 54.4,114.1 53.3,114.4 47.2,118.2 46.1,121.4 46.8,121.6 66.8,121.6 68.1,121.1 68.1,119 
					67.5,118.7 67.5,115 				"/>
				<polygon class="st10" points="66.8,106.4 62.5,104.5 61.3,101 60.7,100.4 56.8,100 55.9,100.7 53.3,110.8 54.5,112.2 
					66.1,112.2 67.1,111.3 67.1,107 				"/>
				<path class="st9" d="M66.5,93.7c0,0-6.9-2.2-7.4-2.4s-0.6,0.1-0.8,0.5c-0.2,0.4-1.1,3.8-1.2,4.3s-0.2,0.9,0.6,1.2
					c1,0.4,3.9,1.3,5.1,1.7c0.6,0.2,0.9,0.5,1,1.1c0.1,0.5,0.2,1.5,0.3,2.2c0.1,0.8,1,1.2,1,1.2l1.6,0.6c0,0,0.6,0,0.6-0.4
					c0-2,0-7.9,0-8.4C67.1,94.7,67.1,93.9,66.5,93.7z"/>
			</g>
		</g>
		<g>
			<path class="st11" d="M72.4,52.1"/>
			<polygon class="st12" points="77.8,47.4 78.7,46.9 78.4,35.3 78.3,35.1 78.3,34.5 78.6,34.5 78.6,33.9 77.4,33.9 77.4,34.5 
				77.7,34.5 77.7,35.1 77.6,35.4 77.2,47.1 			"/>
			<polygon class="st12" points="77,47.7 77.9,48 78.9,47.4 79.7,48 79.7,49.4 80,50 80,59.1 79.4,59.9 76.8,59.9 76.5,59.6 
				76.5,48.3 			"/>
			<polygon class="st12" points="67,47.4 66.1,46.9 66.4,35.3 66.5,35.1 66.5,34.5 66.2,34.5 66.2,33.9 67.4,33.9 67.4,34.5 
				67.1,34.5 67.1,35.1 67.2,35.4 67.6,47.1 			"/>
			<polygon class="st12" points="67.8,47.7 66.9,48 65.9,47.4 65.1,48 65.1,49.4 64.8,50 64.8,59.1 65.4,59.9 68,59.9 68.3,59.6 
				68.3,48.3 			"/>
		</g>
		<g>
			<g>
				<path class="st9" d="M96.1,92.4L96,91.5c-0.2,0-0.4,0-0.6,0c-1.4-0.4-2.2-1.8-1.8-3.1c0.1-0.5,0.4-0.9,0.8-1.2
					c-1.1-0.5-1.7-1.7-1.4-2.9c0.2-0.8,0.8-1.4,1.5-1.7l-0.2-1.1l-2.4-1l-0.7,0.2l0.5,22.3l0.5,0.4l1.5-0.7l0.7-8.7L96.1,92.4z"/>
				<circle class="st6" cx="95.4" cy="84.9" r="2"/>
				<circle class="st6" cx="96" cy="89" r="2"/>
			</g>
			<g>
				<path class="st9" d="M48.7,92.4l0.1-0.9c0.2,0,0.4,0,0.6,0c1.4-0.4,2.2-1.8,1.8-3.1c-0.1-0.5-0.4-0.9-0.8-1.2
					c1.1-0.5,1.7-1.7,1.4-2.9c-0.2-0.8-0.8-1.4-1.5-1.7l0.2-1.1l2.4-1l0.7,0.2L53,102.9l-0.5,0.4l-1.5-0.7l-0.7-8.7L48.7,92.4z"/>
				<circle class="st6" cx="49.4" cy="84.9" r="2"/>
				<circle class="st6" cx="48.8" cy="89" r="2"/>
			</g>
		</g>
		<g>
			<g>
				<polygon class="st6" points="96.7,103.5 107.7,103.6 108,105.1 96.5,105 				"/>
				<polygon class="st6" points="98.3,92.9 99,99.5 106.1,99.5 107.3,102.7 97,102.6 				"/>
				<path class="st9" d="M105.4,95.9l-0.8-1l-1.2-23.1l1.3-2.9l-2.3-7.6c-0.2,0-0.5,0-0.7-0.1c-1.6-0.4-2.6-2.1-2.2-3.7
					c0.1-0.5,0.4-0.9,0.7-1.3c-1.6-0.5-2.5-2.1-2-3.7c0.2-0.7,0.6-1.2,1-1.6l-0.6-1.8l-3.9-1l0.3,19.6l1.3,1.5l3.6,28.9l5.5-0.1
					L105.4,95.9z M102.2,71.1l-5.3-3.7l1.4-2.1l4.9,3.7L102.2,71.1z"/>
				<circle class="st6" cx="101.2" cy="53.3" r="2.6"/>
				<circle class="st6" cx="102.5" cy="58.3" r="2.6"/>
			</g>
			<g>
				<polygon class="st6" points="48.1,103.5 37.1,103.6 36.8,105.1 48.3,105 				"/>
				<polygon class="st6" points="46.5,92.9 45.8,99.5 38.6,99.5 37.5,102.7 47.8,102.6 				"/>
				<path class="st9" d="M39.3,97.9l5.5,0.1l3.6-28.9l1.3-1.5L49.9,48l-3.9,1l-0.6,1.8c0.5,0.4,0.9,0.9,1,1.6c0.4,1.6-0.5,3.2-2,3.7
					c0.3,0.4,0.6,0.8,0.7,1.3c0.4,1.6-0.5,3.3-2.2,3.7c-0.3,0.1-0.5,0.1-0.7,0.1L40,68.9l1.3,2.9l-1.2,23.1l-0.8,1L39.3,97.9z
					 M41.5,68.9l4.9-3.7l1.4,2.1l-5.3,3.7L41.5,68.9z"/>
				<circle class="st6" cx="43.6" cy="53.3" r="2.6"/>
				<circle class="st6" cx="42.3" cy="58.3" r="2.6"/>
			</g>
		</g>
	</g>
	<g>
		<g>
			<path class="st13" d="M33.2,27.5l0.3,21.6c0,0,0.4,1.8,1.7,1.8s2-1.8,2-1.8l-1.3-21.6c0,0-0.6-1.4-1.5-1.4S33.2,27.5,33.2,27.5z"
				/>
			<path class="st13" d="M28,27.5l-0.3,21.6c0,0-0.4,1.8-1.7,1.8c-1.3,0-2-1.8-2-1.8l1.3-21.6c0,0,0.6-1.4,1.5-1.4S28,27.5,28,27.5z
				"/>
			<polygon class="st13" points="29.6,60.5 29.6,52 32.5,53 31.8,16.8 33.2,15.7 31.8,7.1 29.3,7.1 28,15.6 29.2,16.8 28.7,61.1 			
				"/>
			<polygon class="st13" points="28.4,75.7 29.9,74.2 29.9,65.8 28.7,66.8 			"/>
			<polygon class="st13" points="23.8,96.5 26.1,98 26.1,109.9 23.3,111.9 19.9,110.1 20.3,98.2 			"/>
			<path class="st14" d="M38.8,109.4l-6.3-1.9v-7.3l4.7-1l-0.4-3.3l-5,0.2V85.7l4.6-0.8l-0.1-2.6l-1.7,0.2l-0.1-3.9l-1.5-1.4
				l0.8-0.8L33,54.1l-2.6-0.6v7.7l-8,5.8l-1.3,18l4.7,6.8l-0.2,4.3l2.2,1.3v13.2l-4.4,3.6v6.8l2.3,0.8h12.5l1.1-1.7L38.8,109.4z
				 M30.5,75l-4,3.5l-0.5,8.3l-2.6-3.2l1.2-15.8l6-3.6V75z M30.9,79.5l1.3-1.5l1.3,1.1v3.6l-2.6,0.5V79.5z"/>
		</g>
		<g>
			<path class="st15" d="M61.6,85.5c-3-0.4-5.2-1.4-5.6-2c-0.4,0.2-0.7,0.6-0.8,1c-0.1,0.4-0.9,2,5.8,3c5.8,0.9,6.8-0.2,7-0.8
				c0.1-0.6-0.3-1.5-0.3-1.5C66.3,85.8,64.6,86,61.6,85.5z"/>
			<path class="st15" d="M59.7,65.7l3.7-1.6v-0.6L55,46.7h-0.6l-2.7,1.2v0.6l7.2,17.3H59.7z M55.7,51l-1.1,0.5h-0.2l-1.1-3v-0.2
				L54,48h0.2l1.5,2.9V51z"/>
			<path class="st15" d="M88.7,83.5c-0.4,0.6-2.6,1.6-5.6,2c-3,0.4-4.7,0.3-6.1-0.3c0,0-0.5,0.9-0.3,1.5c0.1,0.6,1.2,1.7,7,0.8
				c6.8-1.1,5.9-2.6,5.8-3C89.5,84.1,89.1,83.7,88.7,83.5z"/>
			<path class="st15" d="M83.2,84.6c6.4-1,6.2-3.4,5.8-4.5c-0.5-1.1-2.3-1.2-2.3-1.2l0.7-0.6l-0.7-2.6l2.3-1.5l-0.6-8.9l-0.9-0.6
				l-0.9,2.2l-1.5,0.3L80.2,65v-1.5l0.7-1.3l-4.2,0.4l-0.6,1.5h-3.7h0h-3.7l-0.6-1.5l-4.2-0.4l0.7,1.3V65l-4.9,2.2l-1.5-0.3
				l-0.9-2.2l-0.9,0.6l-0.6,8.9l2.3,1.5l-0.7,2.6l0.7,0.6c0,0-1.9,0.2-2.3,1.2c-0.5,1.1-0.7,3.5,5.8,4.5c6.1,0.9,6.4-0.5,6.7-1.1
				c0.3-0.6,0.1-1.3-0.3-2c0.6-0.2,1.8-0.8,1.8-0.8h2.6h0H75c0,0,1.2,0.6,1.8,0.8c-0.3,0.6-0.6,1.4-0.3,2
				C76.8,84.1,77,85.5,83.2,84.6z"/>
			<path class="st15" d="M90.4,46.7h-0.6l-8.4,16.8v0.6l3.7,1.6h0.8l7.2-17.3v-0.6L90.4,46.7z M91.6,48.5l-1.1,3h-0.2L89.1,51v-0.2
				l1.5-2.9h0.2l0.8,0.3V48.5z"/>
		</g>
		<g>
			<g>
				<polygon class="st16" points="78.8,114.1 90.4,114.1 91.5,114.4 97.6,118.2 98.6,121.4 98,121.6 78,121.6 76.7,121.1 76.7,119 
					77.3,118.7 77.3,115 				"/>
				<polygon class="st17" points="78,106.4 82.3,104.5 83.5,101 84.1,100.4 88,100 88.9,100.7 91.5,110.8 90.3,112.2 78.7,112.2 
					77.7,111.3 77.7,107 				"/>
				<path class="st16" d="M78.3,93.7c0,0,6.9-2.2,7.4-2.4c0.6-0.2,0.6,0.1,0.8,0.5c0.2,0.4,1.1,3.8,1.2,4.3s0.2,0.9-0.6,1.2
					c-1,0.4-3.9,1.3-5.1,1.7c-0.6,0.2-0.9,0.5-1,1.1c-0.1,0.5-0.2,1.5-0.3,2.2c-0.1,0.8-1,1.2-1,1.2l-1.6,0.6c0,0-0.6,0-0.6-0.4
					c0-2,0-7.9,0-8.4C77.7,94.7,77.7,93.9,78.3,93.7z"/>
			</g>
			<g>
				<polygon class="st16" points="66,114.1 54.4,114.1 53.3,114.4 47.2,118.2 46.1,121.4 46.8,121.6 66.8,121.6 68.1,121.1 
					68.1,119 67.5,118.7 67.5,115 				"/>
				<polygon class="st17" points="66.8,106.4 62.5,104.5 61.3,101 60.7,100.4 56.8,100 55.9,100.7 53.3,110.8 54.5,112.2 
					66.1,112.2 67.1,111.3 67.1,107 				"/>
				<path class="st16" d="M66.5,93.7c0,0-6.9-2.2-7.4-2.4s-0.6,0.1-0.8,0.5c-0.2,0.4-1.1,3.8-1.2,4.3s-0.2,0.9,0.6,1.2
					c1,0.4,3.9,1.3,5.1,1.7c0.6,0.2,0.9,0.5,1,1.1c0.1,0.5,0.2,1.5,0.3,2.2c0.1,0.8,1,1.2,1,1.2l1.6,0.6c0,0,0.6,0,0.6-0.4
					c0-2,0-7.9,0-8.4C67.1,94.7,67.1,93.9,66.5,93.7z"/>
			</g>
		</g>
		<g>
			<path class="st18" d="M72.4,52.1"/>
			<polygon class="st19" points="77.8,47.4 78.7,46.9 78.4,35.3 78.3,35.1 78.3,34.5 78.6,34.5 78.6,33.9 77.4,33.9 77.4,34.5 
				77.7,34.5 77.7,35.1 77.6,35.4 77.2,47.1 			"/>
			<polygon class="st19" points="77,47.7 77.9,48 78.9,47.4 79.7,48 79.7,49.4 80,50 80,59.1 79.4,59.9 76.8,59.9 76.5,59.6 
				76.5,48.3 			"/>
			<polygon class="st19" points="67,47.4 66.1,46.9 66.4,35.3 66.5,35.1 66.5,34.5 66.2,34.5 66.2,33.9 67.4,33.9 67.4,34.5 
				67.1,34.5 67.1,35.1 67.2,35.4 67.6,47.1 			"/>
			<polygon class="st19" points="67.8,47.7 66.9,48 65.9,47.4 65.1,48 65.1,49.4 64.8,50 64.8,59.1 65.4,59.9 68,59.9 68.3,59.6 
				68.3,48.3 			"/>
		</g>
		<g>
			<g>
				<path class="st16" d="M96.1,92.4L96,91.5c-0.2,0-0.4,0-0.6,0c-1.4-0.4-2.2-1.8-1.8-3.1c0.1-0.5,0.4-0.9,0.8-1.2
					c-1.1-0.5-1.7-1.7-1.4-2.9c0.2-0.8,0.8-1.4,1.5-1.7l-0.2-1.1l-2.4-1l-0.7,0.2l0.5,22.3l0.5,0.4l1.5-0.7l0.7-8.7L96.1,92.4z"/>
				<circle class="st13" cx="95.4" cy="84.9" r="2"/>
				<circle class="st13" cx="96" cy="89" r="2"/>
			</g>
			<g>
				<path class="st16" d="M48.7,92.4l0.1-0.9c0.2,0,0.4,0,0.6,0c1.4-0.4,2.2-1.8,1.8-3.1c-0.1-0.5-0.4-0.9-0.8-1.2
					c1.1-0.5,1.7-1.7,1.4-2.9c-0.2-0.8-0.8-1.4-1.5-1.7l0.2-1.1l2.4-1l0.7,0.2L53,102.9l-0.5,0.4l-1.5-0.7l-0.7-8.7L48.7,92.4z"/>
				<circle class="st13" cx="49.4" cy="84.9" r="2"/>
				<circle class="st13" cx="48.8" cy="89" r="2"/>
			</g>
		</g>
		<g>
			<g>
				<polygon class="st13" points="96.7,103.5 107.7,103.6 108,105.1 96.5,105 				"/>
				<polygon class="st13" points="98.3,92.9 99,99.5 106.1,99.5 107.3,102.7 97,102.6 				"/>
				<path class="st16" d="M105.4,95.9l-0.8-1l-1.2-23.1l1.3-2.9l-2.3-7.6c-0.2,0-0.5,0-0.7-0.1c-1.6-0.4-2.6-2.1-2.2-3.7
					c0.1-0.5,0.4-0.9,0.7-1.3c-1.6-0.5-2.5-2.1-2-3.7c0.2-0.7,0.6-1.2,1-1.6l-0.6-1.8l-3.9-1l0.3,19.6l1.3,1.5l3.6,28.9l5.5-0.1
					L105.4,95.9z M102.2,71.1l-5.3-3.7l1.4-2.1l4.9,3.7L102.2,71.1z"/>
				<circle class="st13" cx="101.2" cy="53.3" r="2.6"/>
				<circle class="st13" cx="102.5" cy="58.3" r="2.6"/>
			</g>
			<g>
				<polygon class="st13" points="48.1,103.5 37.1,103.6 36.8,105.1 48.3,105 				"/>
				<polygon class="st13" points="46.5,92.9 45.8,99.5 38.6,99.5 37.5,102.7 47.8,102.6 				"/>
				<path class="st16" d="M39.3,97.9l5.5,0.1l3.6-28.9l1.3-1.5L49.9,48l-3.9,1l-0.6,1.8c0.5,0.4,0.9,0.9,1,1.6
					c0.4,1.6-0.5,3.2-2,3.7c0.3,0.4,0.6,0.8,0.7,1.3c0.4,1.6-0.5,3.3-2.2,3.7c-0.3,0.1-0.5,0.1-0.7,0.1L40,68.9l1.3,2.9l-1.2,23.1
					l-0.8,1L39.3,97.9z M41.5,68.9l4.9-3.7l1.4,2.1l-5.3,3.7L41.5,68.9z"/>
				<circle class="st13" cx="43.6" cy="53.3" r="2.6"/>
				<circle class="st13" cx="42.3" cy="58.3" r="2.6"/>
			</g>
		</g>
	</g>
</g>
<g id="レイヤー_6">
</g>
</svg>
